<svg xmlns="http://www.w3.org/2000/svg" fill="none" viewBox="284 464 1352 151">
<path d="M316.875 612.051V557.785H359.731V528.293H316.288V497.621H377.343V466.949H284V612.051H316.875ZM450.725 510.598C448.964 510.008 445.442 509.418 442.506 509.418C434.287 509.418 421.372 512.957 416.089 524.164V510.598H386.149V612.641H417.263V568.402C417.263 548.348 428.417 540.68 440.745 540.68C443.68 540.68 447.203 540.68 450.725 541.859V510.598ZM460.118 584.328C460.118 600.254 473.033 615 495.342 615C508.844 615 518.824 609.102 524.108 600.844C524.108 607.922 524.695 611.461 525.282 612.051H553.461C553.461 610.871 552.287 604.383 552.287 596.125V546.578C552.287 525.934 540.545 507.059 507.67 507.059C477.73 507.059 464.228 526.523 463.053 540.68L490.058 545.988C490.645 538.32 496.516 531.242 507.67 531.242C517.65 531.242 522.347 536.551 522.347 542.449C522.347 545.988 520.585 548.348 515.302 549.527L491.232 553.066C473.621 556.016 460.118 566.043 460.118 584.328ZM502.974 592.586C494.168 592.586 491.232 587.277 491.232 581.969C491.232 574.891 495.929 571.941 502.386 570.762L521.759 567.813V572.531C521.172 587.867 511.779 592.586 502.974 592.586ZM604.535 553.656C604.535 543.629 610.993 535.961 620.973 535.961C632.127 535.961 637.41 543.629 637.41 553.656V612.051H668.525V548.348C668.525 525.934 657.37 507.648 631.54 507.648C620.973 507.648 608.644 512.367 603.361 521.805V510.008H573.421V612.051H604.535V553.656ZM792.394 510.598H752.474L721.947 544.809V464H690.833V612.051H721.947V587.277L731.927 576.66L755.997 612.641H794.155L753.648 553.656L792.394 510.598ZM944.443 612.051H979.667L925.657 466.949H888.085L833.489 612.051H867.538L878.105 582.559H933.876L944.443 612.051ZM906.871 502.93L924.483 553.066H889.259L906.871 502.93ZM1021.93 553.656C1021.93 543.629 1028.39 535.961 1038.37 535.961C1049.53 535.961 1054.81 543.629 1054.81 553.656V612.051H1085.92V548.348C1085.92 525.934 1074.77 507.648 1048.94 507.648C1038.37 507.648 1026.04 512.367 1020.76 521.805V510.008H990.821V612.051H1021.93V553.656ZM1208.03 464H1177.51V518.266C1175.16 514.137 1167.53 507.648 1149.91 507.648C1121.15 507.648 1100.6 530.652 1100.6 560.734C1100.6 591.996 1122.32 614.41 1150.5 614.41C1162.83 614.41 1172.81 609.102 1177.51 602.613C1177.51 606.742 1178.09 611.461 1178.09 612.641H1208.03C1208.03 610.281 1207.45 603.793 1207.45 594.355V464H1208.03ZM1132.3 561.324C1132.3 544.219 1142.87 535.961 1155.2 535.961C1166.94 535.961 1178.09 544.219 1178.09 561.324C1178.09 577.84 1167.53 586.687 1155.2 586.687C1142.87 586.687 1132.3 577.84 1132.3 561.324ZM1291.4 539.5C1291.4 509.418 1313.12 495.262 1333.08 495.262C1353.04 495.262 1374.76 508.828 1374.76 539.5C1374.76 569.582 1353.04 583.148 1333.08 583.148C1312.53 583.148 1291.4 569.582 1291.4 539.5ZM1257.93 539.5C1257.93 585.508 1292.57 615 1333.08 615C1373.58 615 1408.22 585.508 1408.22 539.5C1408.22 493.492 1373.58 464 1333.08 464C1291.98 464 1257.93 493.492 1257.93 539.5ZM1418.79 584.328C1418.79 600.254 1431.7 615 1454.01 615C1467.51 615 1477.49 609.102 1482.78 600.844C1482.78 607.922 1483.36 611.461 1483.95 612.051H1512.13C1512.13 610.871 1510.96 604.383 1510.96 596.125V546.578C1510.96 525.934 1499.21 507.059 1466.34 507.059C1436.4 507.059 1422.9 526.523 1421.72 540.68L1448.73 545.988C1449.31 538.32 1455.19 531.242 1466.34 531.242C1476.32 531.242 1481.02 536.551 1481.02 542.449C1481.02 545.988 1479.25 548.348 1473.97 549.527L1449.9 553.066C1432.29 556.016 1418.79 566.043 1418.79 584.328ZM1461.64 592.586C1452.84 592.586 1449.9 587.277 1449.9 581.969C1449.9 574.891 1454.6 571.941 1461.06 570.762L1480.43 567.813V572.531C1479.84 587.867 1470.45 592.586 1461.64 592.586ZM1634.24 510.598H1594.32L1563.79 544.809V464H1532.68V612.051H1563.79V587.277L1573.77 576.66L1597.84 612.641H1636L1595.49 553.656L1634.24 510.598Z" fill="#231F20"/>
</svg>